<svg width="280" height="76" viewBox="0 0 280 76" fill="none" xmlns="http://www.w3.org/2000/svg">
<path d="M150.214 38L112.66 0.5V75.5L150.214 38Z" fill="#ED3225"/>
<path d="M75.1072 38L112.661 0.5H37.5537L75.1072 38Z" fill="#ED3225"/>
<path d="M0 38L37.5535 75.5V0.5L0 38Z" fill="#ED3225"/>
<path d="M75.1072 38L37.5537 75.5H112.661L75.1072 38Z" fill="#ED3225"/>
<path d="M183.171 40.28H169.561V53.705H162.727V22.295H169.561V35.15H183.171V22.295H190.005V53.705H183.171V40.28Z" fill="black"/>
<path d="M206.349 54.26C199.559 54.26 194.001 51.56 193.866 44.06H200.686C200.776 47.405 202.729 49.4 206.469 49.4C209.248 49.4 212.388 48.005 212.388 44.885C212.388 42.455 210.255 41.675 206.74 40.67L204.471 40.025C199.514 38.585 194.602 36.68 194.602 31.025C194.602 24.035 201.122 21.68 207.085 21.68C213.049 21.68 218.486 23.81 218.531 30.755H211.712C211.441 27.89 209.804 26.24 206.574 26.24C204.051 26.24 201.527 27.59 201.527 30.365C201.527 32.675 203.615 33.365 208.046 34.76L210.66 35.585C216.053 37.28 219.448 39.14 219.448 44.36C219.448 51.53 212.523 54.26 206.349 54.26Z" fill="black"/>
<path d="M223.293 22.295H234.214C237.653 22.295 239.035 22.385 240.387 22.685C244.218 23.555 247.087 26.03 247.087 30.245C247.087 34.46 244.518 36.365 240.823 37.325C245.089 38.105 248.213 40.28 248.213 44.93C248.213 52.055 241.168 53.705 235.641 53.705H223.293V22.295ZM234.244 35.375C237.248 35.375 240.297 34.76 240.297 31.115C240.297 27.86 237.428 26.99 234.679 26.99H229.887V35.375H234.244ZM234.905 49.01C238.089 49.01 241.213 48.275 241.213 44.45C241.213 40.625 238.51 39.845 235.295 39.845H229.902V49.01H234.905Z" fill="black"/>
<path d="M266.014 54.26C255.874 54.26 251.308 47.78 251.308 38.225C251.308 28.67 256.355 21.68 266.359 21.68C272.623 21.68 278.707 24.455 278.887 31.58H271.842C271.496 28.46 269.408 26.795 266.359 26.795C260.215 26.795 258.353 33.395 258.353 38.435C258.353 43.475 260.215 49.25 266.134 49.25C269.228 49.25 271.481 47.6 271.962 44.435H279.052C278.271 51.56 272.533 54.245 265.999 54.245" fill="black"/>
</svg>
