<svg width="16" height="16" viewBox="0 0 16 16" fill="none" xmlns="http://www.w3.org/2000/svg">
<path d="M0.298246 1.70175C0.0994153 1.51462 1.19209e-07 1.2807 1.19209e-07 1C1.19209e-07 0.719298 0.0994153 0.48538 0.298246 0.298245C0.497076 0.0994153 0.730994 4.76837e-07 1 4.76837e-07C1.2924 4.76837e-07 1.52632 0.0994153 1.70175 0.298245L15.7018 14.2982C15.9006 14.4737 16 14.7076 16 15C16 15.269 15.9006 15.5029 15.7018 15.7018C15.5146 15.9006 15.2807 16 15 16C14.7193 16 14.4854 15.9006 14.2982 15.7018L0.298246 1.70175ZM14.2982 0.298245C14.4854 0.0994153 14.7193 4.76837e-07 15 4.76837e-07C15.2807 4.76837e-07 15.5146 0.0994153 15.7018 0.298245C15.9006 0.48538 16 0.719298 16 1C16 1.2807 15.9006 1.51462 15.7018 1.70175L1.70175 15.7018C1.52632 15.9006 1.2924 16 1 16C0.730994 16 0.497076 15.9006 0.298246 15.7018C0.0994153 15.5029 1.19209e-07 15.269 1.19209e-07 15C1.19209e-07 14.7076 0.0994153 14.4737 0.298246 14.2982L14.2982 0.298245Z" fill="white"/>
</svg>
