<svg width="160" height="33" viewBox="0 0 160 33" fill="none" xmlns="http://www.w3.org/2000/svg">
<g clip-path="url(#clip0_1422_47546)">
<path d="M21.7941 10.6293C21.9667 10.7502 22.0974 10.8488 22.2355 10.9376C23.9989 12.0967 25.7597 13.2657 27.5329 14.4125C28.1717 14.8244 28.512 15.3768 28.5342 16.129C28.5391 16.309 28.5441 16.4891 28.5441 16.6716C28.5441 21.0491 28.5441 25.4241 28.5441 29.8016C28.5441 30.0384 28.5293 30.2727 28.5071 30.507C28.4183 31.4934 27.5033 32.1593 26.6254 32.1569C22.7756 32.1396 18.9234 32.1495 15.0737 32.1495C13.4188 32.1495 11.764 32.1273 10.1117 32.1569C9.02653 32.1766 8.16336 31.2764 8.16583 30.211C8.18309 25.5277 8.17569 20.8468 8.17323 16.1635C8.17323 15.4187 8.48397 14.8614 9.10545 14.4569C10.8737 13.3027 12.6371 12.1411 14.4029 10.982C14.5607 10.8784 14.7111 10.7625 14.9035 10.6269C14.7309 10.506 14.6125 10.4148 14.4867 10.3309C11.2708 8.2174 8.05485 6.10633 4.83645 3.99526C4.75507 3.941 4.67615 3.88181 4.58983 3.84235C4.2199 3.67465 3.83271 3.87195 3.77105 4.27147C3.74146 4.47617 3.74886 4.68826 3.74886 4.89542C3.74886 13.759 3.74886 22.625 3.74886 31.4885C3.74886 31.6932 3.73159 31.8954 3.72173 32.1248H0.0224192C0.0150205 31.9423 0.00268952 31.7647 0.00268952 31.5896C0.00268952 26.672 0.00268952 21.7519 0.00268952 16.8343C0.00268952 12.6936 -0.00470909 8.5528 0.00762193 4.41205C0.0100881 2.87807 0.62664 1.61784 1.91893 0.771927C3.4899 -0.254015 5.1176 -0.251549 6.69844 0.752197C8.51603 1.90638 10.304 3.10742 12.1044 4.28873C14.0551 5.5687 16.0108 6.84372 17.9517 8.13848C18.2575 8.34318 18.4622 8.32345 18.7582 8.12615C22.4328 5.6994 26.1173 3.28746 29.7969 0.868109C30.4209 0.458719 31.0793 0.16524 31.8291 0.0715244C33.1066 -0.0887789 34.2262 0.258956 35.1905 1.08267C36.1326 1.89158 36.6308 2.93479 36.6702 4.18269C36.6752 4.33559 36.6727 4.4885 36.6727 4.6414C36.6727 13.5888 36.6727 22.5387 36.6727 31.486C36.6727 31.6907 36.6727 31.8954 36.6727 32.1223H32.9561C32.9512 31.9448 32.9413 31.7697 32.9413 31.5946C32.9413 25.6189 32.9413 19.6458 32.9413 13.6702C32.9413 10.654 32.9413 7.64031 32.9413 4.62414C32.9413 4.32819 32.9611 4.02732 32.6503 3.85468C32.3248 3.67465 32.0683 3.85468 31.8093 4.02485C28.6057 6.13099 25.3997 8.23466 22.1936 10.3383C22.0703 10.4197 21.9519 10.511 21.7891 10.6269L21.7941 10.6293ZM18.3513 12.8835C18.2107 12.9673 18.1022 13.029 17.9986 13.098C16.0947 14.3484 14.1932 15.6037 12.2819 16.8417C11.9909 17.0292 11.8824 17.2338 11.8849 17.5816C11.8972 21.0121 11.8923 24.445 11.8923 27.8755C11.8923 27.9865 11.8923 28.0975 11.8997 28.2085C11.9071 28.3392 11.9761 28.4132 12.1068 28.4206C12.203 28.4255 12.3017 28.4279 12.3978 28.4279C16.3586 28.4279 20.3218 28.4279 24.2825 28.4279C24.4305 28.4279 24.5784 28.4107 24.756 28.3984C24.7659 28.2282 24.7807 28.0925 24.7807 27.9569C24.7807 24.4697 24.7807 20.9825 24.7881 17.4953C24.7881 17.1944 24.6894 17.0242 24.4378 16.859C22.5611 15.6407 20.6966 14.4076 18.8272 13.1794C18.6768 13.0808 18.5239 12.987 18.3488 12.8785L18.3513 12.8835Z" fill="#EA5D11"/>
<path d="M58.0888 26.4427H56.1849V25.8927C56.1849 22.3192 56.1898 18.7456 56.1775 15.1721C56.1775 14.7183 56.1233 14.2522 56.0172 13.8108C55.6966 12.4987 54.6904 11.6652 53.3463 11.5468C50.6705 11.3076 48.3276 13.426 48.3202 16.1117C48.3103 19.3795 48.3177 22.6472 48.3177 25.9149C48.3177 26.0777 48.3177 26.2429 48.3177 26.4353H46.4385V10.2718H48.3153V12.5999L48.4065 12.6368C48.5027 12.5135 48.6013 12.3902 48.6926 12.2669C49.5336 11.13 50.6064 10.3383 52.0072 10.0399C53.0035 9.82537 53.9949 9.83524 54.9715 10.1583C56.143 10.548 56.9815 11.31 57.4945 12.4346C57.5512 12.5579 57.6079 12.6812 57.6918 12.8687C57.8003 12.7182 57.8817 12.6171 57.9532 12.5086C59.4847 10.1854 62.1309 9.55902 64.2667 10.0523C66.2076 10.5011 67.5171 11.9636 67.7638 13.9415C67.8106 14.3262 67.8402 14.7159 67.8402 15.1055C67.8451 18.721 67.8427 22.3364 67.8427 25.9519C67.8427 26.1023 67.8427 26.2528 67.8427 26.3958C67.5023 26.4945 66.3975 26.5043 65.9585 26.4106V25.9322C65.9585 22.3734 65.961 18.8122 65.9536 15.2535C65.9536 14.8515 65.9264 14.4446 65.8475 14.0524C65.5565 12.6319 64.5478 11.7293 63.0804 11.564C62.3973 11.4876 61.7166 11.5295 61.0606 11.7564C59.4058 12.3261 58.4662 13.5074 58.1702 15.2116C58.1036 15.5914 58.0888 15.986 58.0864 16.3731C58.079 19.557 58.0839 22.7409 58.0839 25.9272V26.4525L58.0888 26.4427Z" fill="white"/>
<path d="M97.2004 27.9717H98.9983C99.0279 28.0408 99.0723 28.1246 99.0994 28.2134C99.3485 29.0519 99.8935 29.6315 100.665 30.0162C101.388 30.3763 102.167 30.507 102.961 30.5686C103.827 30.6352 104.685 30.5785 105.526 30.359C107.371 29.8756 108.513 28.6031 108.671 26.709C108.76 25.6313 108.7 24.5412 108.705 23.4586C108.705 23.4364 108.681 23.4117 108.649 23.355C108.579 23.4216 108.508 23.4758 108.454 23.5424C108.306 23.7274 108.173 23.9222 108.025 24.1047C106.959 25.4143 105.563 26.0555 103.894 26.1369C103.04 26.1788 102.199 26.1023 101.381 25.8508C99.3361 25.2244 97.9921 23.8433 97.193 21.9024C96.5345 20.2969 96.4014 18.6149 96.5469 16.9059C96.6406 15.8183 96.902 14.7701 97.3681 13.7787C98.6604 11.0264 101.427 9.54423 104.444 9.95608C106.118 10.1854 107.41 10.9919 108.358 12.3754C108.436 12.4889 108.515 12.5999 108.621 12.7478C108.784 12.4568 108.693 12.1806 108.71 11.9192C108.727 11.6553 108.713 11.3914 108.713 11.1275V10.2742H110.562C110.572 10.3951 110.594 10.5159 110.594 10.6343C110.594 15.764 110.594 20.8962 110.594 26.0259C110.594 26.7115 110.501 27.3848 110.303 28.0408C109.741 29.92 108.486 31.1211 106.644 31.7277C105.383 32.1421 104.081 32.2161 102.769 32.1223C101.906 32.0607 101.062 31.9004 100.251 31.5822C99.4373 31.2616 98.7097 30.8103 98.14 30.137C97.6172 29.5205 97.2917 28.8152 97.1955 27.9717H97.2004ZM98.4705 17.9293C98.468 19.3992 98.6505 20.6717 99.2178 21.8629C99.8392 23.1651 100.821 24.0529 102.241 24.3982C103.176 24.6251 104.118 24.6029 105.05 24.3711C106.72 23.9567 107.793 22.8716 108.333 21.2834C109.058 19.1526 109.043 16.9946 108.355 14.8515C108.128 14.1437 107.748 13.5148 107.248 12.9575C105.889 11.4432 103.393 11.1497 101.689 11.8501C100.402 12.3804 99.5877 13.3668 99.0723 14.6246C98.6185 15.7344 98.4582 16.9009 98.468 17.9318L98.4705 17.9293Z" fill="white"/>
<path d="M159.978 25.064C159.987 25.2219 159.997 25.3156 160 25.4118C160 25.7447 160 26.0776 160 26.4254C159.869 26.4772 159.758 26.5314 159.64 26.5635C159.107 26.7065 158.562 26.7189 158.027 26.6153C157.035 26.4229 156.436 25.6855 156.35 24.6004C156.337 24.4376 156.332 24.2724 156.323 24.1145C156.128 24.0554 156.091 24.2132 156.024 24.2995C155.028 25.5844 153.731 26.3909 152.133 26.6843C150.714 26.9457 149.306 26.9137 147.945 26.3884C146.228 25.725 145.262 24.3044 145.24 22.4647C145.232 21.8629 145.279 21.271 145.457 20.6939C145.752 19.7321 146.352 19.012 147.212 18.5015C148.012 18.0279 148.887 17.7468 149.795 17.5914C150.959 17.3941 152.133 17.2585 153.299 17.076C153.861 16.9897 154.419 16.8762 154.971 16.7381C155.22 16.6765 155.462 16.5433 155.684 16.4077C156.009 16.2104 156.199 15.8971 156.254 15.5248C156.35 14.8589 156.33 14.193 156.138 13.5419C155.911 12.7799 155.437 12.2052 154.712 11.892C154.271 11.7021 153.792 11.5517 153.319 11.495C152.293 11.3717 151.262 11.4013 150.263 11.7194C148.919 12.1485 148.125 13.0635 147.883 14.4544C147.851 14.632 147.822 14.8096 147.787 15.0167H145.933C145.95 14.8663 145.962 14.7331 145.979 14.5999C146.295 12.2792 147.602 10.8168 149.849 10.2101C151.462 9.77356 153.092 9.77849 154.717 10.1657C155.302 10.3038 155.849 10.543 156.345 10.8932C157.435 11.6627 157.931 12.7626 158.066 14.045C158.118 14.5284 158.13 15.0167 158.13 15.5026C158.135 18.2277 158.13 20.9529 158.135 23.678C158.135 23.8852 158.135 24.0997 158.175 24.302C158.301 24.9309 158.784 25.2539 159.44 25.1602C159.603 25.138 159.763 25.101 159.975 25.064H159.978ZM156.318 17.6999C155.98 17.8282 155.689 17.949 155.39 18.0477C154.33 18.3979 153.232 18.5631 152.133 18.721C151.183 18.8566 150.234 18.9848 149.324 19.3054C148.068 19.7469 147.351 20.6051 147.252 21.9492C147.129 23.6386 147.849 24.8297 149.612 25.1799C150.808 25.4167 151.992 25.3378 153.141 24.9185C155.018 24.2329 156.406 22.509 156.347 20.3141C156.328 19.5915 156.347 18.8689 156.342 18.1463C156.342 18.0132 156.328 17.88 156.318 17.7024V17.6999Z" fill="white"/>
<path d="M128.008 25.0616V26.4525C127.083 26.7435 126.176 26.8299 125.31 26.3194C124.696 25.9593 124.467 25.3477 124.383 24.6744C124.358 24.4845 124.353 24.2946 124.336 24.0825C124.136 24.1022 124.084 24.2477 124.006 24.3464C123.007 25.6116 121.714 26.4007 120.134 26.6868C118.745 26.9384 117.364 26.9112 116.025 26.4057C114.296 25.7546 113.337 24.4105 113.268 22.5658C113.243 21.9517 113.285 21.3425 113.458 20.7507C113.751 19.7543 114.36 19.0095 115.251 18.4867C116.052 18.0156 116.928 17.737 117.835 17.5841C118.984 17.3892 120.146 17.256 121.298 17.076C121.86 16.9897 122.417 16.8713 122.97 16.7406C123.197 16.6864 123.414 16.5778 123.618 16.4619C124.006 16.2424 124.24 15.8947 124.284 15.4582C124.348 14.849 124.356 14.2349 124.188 13.6357C123.946 12.7602 123.401 12.1362 122.56 11.8057C122.176 11.6553 121.766 11.5369 121.357 11.4901C120.4 11.3791 119.441 11.3939 118.501 11.6504C117.046 12.045 116.153 12.9673 115.902 14.4742C115.884 14.5704 115.867 14.6665 115.85 14.7602C115.835 14.8392 115.823 14.9206 115.808 15.0217H113.966C113.98 14.854 113.985 14.6961 114.008 14.5383C114.345 12.2373 115.657 10.7946 117.889 10.2052C119.574 9.76125 121.275 9.74645 122.955 10.2323C124.886 10.7872 125.922 12.1535 126.107 14.1881C126.134 14.4791 126.131 14.7726 126.131 15.0636C126.131 17.8726 126.131 20.6816 126.134 23.4906C126.134 23.7397 126.149 23.9913 126.188 24.2379C126.297 24.921 126.79 25.2663 127.478 25.1602C127.641 25.1356 127.801 25.1035 128.008 25.0665V25.0616ZM124.339 17.7345C123.675 17.9392 123.091 18.171 122.484 18.2943C121.342 18.5261 120.188 18.6914 119.039 18.8887C118.272 19.0194 117.512 19.1797 116.809 19.5373C116.03 19.9343 115.529 20.5509 115.357 21.4091C115.29 21.747 115.26 22.0997 115.265 22.4425C115.285 23.8088 115.985 24.741 117.305 25.0912C118.762 25.4784 120.213 25.3871 121.574 24.7311C123.387 23.8581 124.353 22.403 124.361 20.361C124.363 19.6384 124.361 18.9158 124.361 18.1932C124.361 18.0452 124.348 17.8973 124.341 17.7345H124.339Z" fill="white"/>
<path d="M77.9049 9.86482C81.0592 9.84756 83.555 11.4777 84.6969 14.3582C85.7499 17.0168 85.7524 19.7173 84.6944 22.3734C83.7868 24.6497 82.1369 26.1664 79.7028 26.6819C77.5128 27.1455 75.4412 26.8274 73.594 25.4833C72.5927 24.7558 71.8455 23.8063 71.3572 22.6768C70.1339 19.8382 70.1043 16.965 71.3276 14.1338C72.282 11.929 73.9738 10.5356 76.3512 10.0227C76.5683 9.9758 76.7878 9.93634 77.0097 9.91661C77.3279 9.88702 77.6485 9.87962 77.9074 9.86482H77.9049ZM83.5032 18.3831C83.5082 17.0464 83.3035 15.7492 82.7264 14.5358C81.9125 12.8243 80.6104 11.7268 78.6843 11.5098C76.6126 11.2755 74.9036 11.9414 73.7001 13.6973C73.4362 14.082 73.2191 14.5136 73.044 14.9477C72.4645 16.383 72.3461 17.8849 72.4842 19.4115C72.5829 20.4991 72.8541 21.5448 73.3745 22.514C74.8616 25.2959 77.7372 25.6905 79.8286 24.9605C81.2836 24.4524 82.2183 23.3821 82.8201 22.001C83.3207 20.8493 83.5106 19.6335 83.5082 18.3831H83.5032Z" fill="white"/>
<path d="M132.117 12.6664C132.193 12.5752 132.275 12.4864 132.346 12.3902C133.587 10.7724 135.242 9.97333 137.266 9.89934C138.181 9.86728 139.074 9.97579 139.917 10.3383C141.498 11.0165 142.366 12.2472 142.628 13.9217C142.687 14.304 142.709 14.6961 142.709 15.0833C142.714 18.7259 142.712 22.3709 142.712 26.0135V26.3958C142.398 26.524 142.093 26.4476 141.794 26.4599C141.491 26.4747 141.185 26.4624 140.835 26.4624C140.825 26.2601 140.81 26.085 140.81 25.9124C140.81 22.3931 140.815 18.8763 140.803 15.3571C140.803 14.8737 140.753 14.3804 140.647 13.9119C140.401 12.8218 139.73 12.0573 138.652 11.7589C136.66 11.2064 134.842 11.5616 133.323 13.0216C132.45 13.8576 132.026 14.9156 132.023 16.129C132.021 19.3844 132.023 22.6373 132.023 25.8927V26.4476C131.397 26.4846 130.792 26.4648 130.198 26.4574C130.099 26.1344 130.062 10.9672 130.156 10.2569C130.447 10.252 130.746 10.2446 131.046 10.2421C131.35 10.2397 131.653 10.2421 132.006 10.2421V12.6319L132.114 12.6664H132.117Z" fill="white"/>
<path d="M90.1151 26.45H88.2753C88.2506 26.4229 88.2408 26.413 88.2334 26.4032C88.226 26.3933 88.2137 26.381 88.2112 26.3687C88.2013 26.2996 88.1865 26.233 88.1865 26.164C88.1865 20.9381 88.1865 15.7097 88.1865 10.4838C88.1865 10.4419 88.1939 10.4 88.2063 10.3605C88.2137 10.3359 88.2334 10.3137 88.2605 10.2693H90.1077V13.1523L90.1915 13.1819C90.2507 13.1054 90.3223 13.0339 90.3716 12.95C90.6823 12.4346 91.0449 11.9611 91.4863 11.5517C92.5566 10.5578 93.8243 10.0818 95.2843 10.1312C95.3533 10.1312 95.4224 10.1386 95.4914 10.1484C95.5309 10.1534 95.5679 10.1731 95.632 10.1953V12.0055C95.3089 12.0055 95.0056 11.9882 94.7047 12.0079C92.6602 12.1362 91.0523 13.4013 90.3962 15.3891C90.199 15.9884 90.1151 16.6025 90.1176 17.2338C90.1225 20.1242 90.1176 23.0171 90.1176 25.9075V26.4476L90.1151 26.45Z" fill="white"/>
</g>
<defs>
<clipPath id="clip0_1422_47546">
<rect width="160" height="32.1568" fill="white"/>
</clipPath>
</defs>
</svg>
