<svg width="508" height="75" viewBox="0 0 508 75" fill="none" xmlns="http://www.w3.org/2000/svg">
<path d="M128.634 22.8448C114.276 22.8448 102.574 34.5307 102.574 48.9224C102.574 63.3142 114.276 75 128.634 75C142.991 75 154.693 63.2902 154.693 48.9224C154.693 34.5546 142.991 22.8448 128.634 22.8448ZM128.634 60.4167C122.292 60.4167 117.147 55.2443 117.147 48.9224C117.147 42.6006 122.316 37.4282 128.634 37.4282C134.951 37.4282 140.12 42.5766 140.12 48.9224C140.12 55.2682 134.975 60.4167 128.634 60.4167Z" fill="#DB1F27"/>
<path d="M187.908 24.0661H180.777V8.66858H165.199V24.0661H158.092V38.1944H165.199V73.7548H180.777V38.1944H187.908V24.0661Z" fill="#DB1F27"/>
<path d="M210.616 24.0661H195.038V73.7548H210.616V24.0661Z" fill="#DB1F27"/>
<path d="M202.84 0C198.054 0 194.153 3.90325 194.153 8.69253C194.153 13.4818 198.054 17.3611 202.84 17.3611C207.626 17.3611 211.526 13.4818 211.526 8.69253C211.526 3.90325 207.626 0 202.84 0Z" fill="#DB1F27"/>
<path d="M426.246 37.4521C431.367 37.4521 435.53 41.6188 435.53 46.7433V73.7548H451.108V44.6121C451.108 31.3937 443.475 22.8448 431.438 22.8448C426.485 22.8448 421.268 25.024 416.961 31.9684V24.0901H401.383V73.7788H416.961V46.7673C416.961 41.6427 421.125 37.4761 426.246 37.4761" fill="#DB1F27"/>
<path d="M507.895 73.7547L488.751 48.9463L506.554 24.0661H488.344L474.034 44.181V1.24518H458.456V73.7547H474.034V53.2806L489.732 73.7547H507.895Z" fill="#DB1F27"/>
<path d="M48.9486 60.3927C50.0733 57.6868 50.5518 54.9569 50.5518 51.2452C50.5518 46.2404 48.9725 41.7624 46.1249 38.6255C42.7987 34.9856 37.1034 31.9444 29.2306 29.6216C27.5077 29.1188 26.048 28.568 24.8036 27.9693C23.4157 27.2988 22.3867 26.4607 21.5014 25.5029C20.4963 24.4013 20.0895 23.1082 20.0895 21.4799C20.0895 19.1571 21.3099 17.6006 23.32 16.3554C25.8326 14.7749 30.6903 14.6073 35.6437 16.4511C37.3667 17.0977 38.9221 17.7921 40.6689 18.8218L47.2974 5.62739C44.8327 4.16667 41.339 2.25096 37.7974 1.34099C34.208 0.431033 30.8578 0 27.2205 0C23.5832 0 20.257 0.550767 17.3376 1.62835C14.7532 2.58621 12.0492 4.33429 9.77587 6.5613C7.69399 8.57279 5.82749 11.4464 4.75066 14.1044C3.6499 16.8343 3.07559 19.9234 3.07559 23.2759C3.07559 26.6283 4.75066 32.4952 8.93833 36.4464C13.4849 40.7088 18.6298 42.2174 20.6877 43.0316C22.7457 43.8218 25.0429 44.5163 26.5026 45.091C28.0341 45.7136 29.781 46.5278 30.7621 47.2701C31.8389 48.0603 32.5568 48.8027 33.0354 49.7845C33.514 50.7663 33.6336 51.6762 33.514 52.9454C33.3704 54.5977 32.6286 55.9866 31.2885 57.2318C29.9485 58.501 27.5316 59.1954 24.1097 59.1954C21.2381 59.1954 18.3427 58.3812 15.4232 57.1121C12.8628 55.9866 11.092 54.9808 8.36402 53.3764L0.586914 66.954C6.01893 71.7672 14.825 75 22.6739 75C26.6701 75 30.8339 74.3295 34.3994 73.1322C37.7495 71.9827 41.0757 70.1389 43.3012 68.1513C45.6702 66.0201 47.8239 63.0508 48.9246 60.3927" fill="#DB1F27"/>
<path d="M91.5916 56.1063C89.4858 58.7164 86.2553 60.3927 82.6419 60.3927C76.3006 60.3927 71.1558 55.2442 71.1558 48.8984C71.1558 42.5527 76.3006 37.4042 82.6419 37.4042C86.2553 37.4042 89.4858 39.0804 91.5916 41.6906L101.905 31.3458C97.1433 26.1015 90.2755 22.8209 82.6419 22.8209C68.2603 22.8209 55.7451 33.0459 55.7451 48.8984C55.7451 64.7509 68.2603 74.976 82.6419 74.976C90.2755 74.976 97.1433 71.6714 101.905 66.4272L91.5916 56.1063Z" fill="#DB1F27"/>
<path d="M271.565 73.7548V24.0661H256.37V29.2864L254.958 28.0172C251.153 24.6168 246.894 22.8209 241.869 22.8209C228.468 22.8209 217.149 34.7701 217.149 48.8984C217.149 63.0268 228.468 74.976 241.869 74.976C246.894 74.976 251.129 73.18 254.958 69.7797L256.37 68.5345V73.7548H271.565ZM244.309 60.6561C237.848 60.6561 232.584 55.3879 232.584 48.9224C232.584 42.4569 237.848 37.1887 244.309 37.1887C250.77 37.1887 256.035 42.4569 256.035 48.9224C256.035 55.3879 250.77 60.6561 244.309 60.6561Z" fill="#DB1F27"/>
<path d="M393.941 73.7548V24.0661H378.746V29.2864L377.334 28.0172C373.529 24.6168 369.27 22.8209 364.245 22.8209C350.844 22.8209 339.525 34.7701 339.525 48.8984C339.525 63.0268 350.844 74.976 364.245 74.976C369.27 74.976 373.505 73.18 377.334 69.7797L378.746 68.5345V73.7548H393.941ZM366.685 60.6561C360.224 60.6561 354.96 55.3879 354.96 48.9224C354.96 42.4569 360.224 37.1887 366.685 37.1887C373.146 37.1887 378.411 42.4569 378.411 48.9224C378.411 55.3879 373.146 60.6561 366.685 60.6561Z" fill="#DB1F27"/>
<path d="M294.802 73.7548V68.5344L296.214 69.8036C300.018 73.204 304.278 75 309.303 75C322.704 75 334.022 63.0507 334.022 48.9224C334.022 34.794 322.704 22.8448 309.303 22.8448C304.278 22.8448 300.042 24.6408 296.214 28.0651L294.802 29.3103V1.24518H279.606V73.7548H294.802ZM295.137 48.9224C295.137 42.4569 300.401 37.1887 306.862 37.1887C313.323 37.1887 318.588 42.4569 318.588 48.9224C318.588 55.3879 313.323 60.6561 306.862 60.6561C300.401 60.6561 295.137 55.3879 295.137 48.9224Z" fill="#DB1F27"/>
</svg>
